<mxfile host="app.diagrams.net" agent="Mozilla/5.0 (Windows NT 10.0; Win64; x64; rv:137.0) Gecko/20100101 Firefox/137.0" version="26.2.13">
  <diagram name="Page-1" id="n84LN_FA840mGRHx99oQ">
    <mxGraphModel dx="2040" dy="1111" grid="1" gridSize="10" guides="1" tooltips="1" connect="1" arrows="1" fold="1" page="1" pageScale="1" pageWidth="827" pageHeight="1169" math="0" shadow="0">
      <root>
        <mxCell id="0" />
        <mxCell id="1" parent="0" />
        <mxCell id="Vm3qSYr9DGrWe2gxvmKs-1" style="edgeStyle=orthogonalEdgeStyle;rounded=0;orthogonalLoop=1;jettySize=auto;html=1;exitX=1;exitY=0.5;exitDx=0;exitDy=0;entryX=0;entryY=0.5;entryDx=0;entryDy=0;" edge="1" parent="1" source="Vm3qSYr9DGrWe2gxvmKs-3" target="Vm3qSYr9DGrWe2gxvmKs-7">
          <mxGeometry relative="1" as="geometry" />
        </mxCell>
        <mxCell id="Vm3qSYr9DGrWe2gxvmKs-2" value="! Ajouter carte" style="edgeLabel;html=1;align=center;verticalAlign=middle;resizable=0;points=[];" vertex="1" connectable="0" parent="Vm3qSYr9DGrWe2gxvmKs-1">
          <mxGeometry x="-0.125" y="-1" relative="1" as="geometry">
            <mxPoint y="-11" as="offset" />
          </mxGeometry>
        </mxCell>
        <mxCell id="Vm3qSYr9DGrWe2gxvmKs-3" value="C3.0" style="ellipse;whiteSpace=wrap;html=1;aspect=fixed;" vertex="1" parent="1">
          <mxGeometry x="110" y="360" width="80" height="80" as="geometry" />
        </mxCell>
        <mxCell id="Vm3qSYr9DGrWe2gxvmKs-4" value="" style="endArrow=classic;html=1;rounded=0;entryX=0;entryY=0.5;entryDx=0;entryDy=0;" edge="1" parent="1" target="Vm3qSYr9DGrWe2gxvmKs-3">
          <mxGeometry width="50" height="50" relative="1" as="geometry">
            <mxPoint x="40" y="400" as="sourcePoint" />
            <mxPoint x="100" y="400" as="targetPoint" />
          </mxGeometry>
        </mxCell>
        <mxCell id="Vm3qSYr9DGrWe2gxvmKs-5" style="edgeStyle=orthogonalEdgeStyle;rounded=0;orthogonalLoop=1;jettySize=auto;html=1;entryX=0;entryY=0.5;entryDx=0;entryDy=0;" edge="1" parent="1" source="Vm3qSYr9DGrWe2gxvmKs-7" target="Vm3qSYr9DGrWe2gxvmKs-8">
          <mxGeometry relative="1" as="geometry" />
        </mxCell>
        <mxCell id="Vm3qSYr9DGrWe2gxvmKs-6" value="! PUT /deck/addCard" style="edgeLabel;html=1;align=center;verticalAlign=middle;resizable=0;points=[];" vertex="1" connectable="0" parent="Vm3qSYr9DGrWe2gxvmKs-5">
          <mxGeometry x="-0.0547" y="-1" relative="1" as="geometry">
            <mxPoint y="-11" as="offset" />
          </mxGeometry>
        </mxCell>
        <mxCell id="Vm3qSYr9DGrWe2gxvmKs-7" value="&lt;div&gt;C3.1&lt;/div&gt;" style="ellipse;whiteSpace=wrap;html=1;aspect=fixed;" vertex="1" parent="1">
          <mxGeometry x="350" y="360" width="80" height="80" as="geometry" />
        </mxCell>
        <mxCell id="Vm3qSYr9DGrWe2gxvmKs-8" value="S3.1" style="ellipse;whiteSpace=wrap;html=1;aspect=fixed;" vertex="1" parent="1">
          <mxGeometry x="630" y="359" width="80" height="80" as="geometry" />
        </mxCell>
        <mxCell id="Vm3qSYr9DGrWe2gxvmKs-9" value="S3.2" style="ellipse;whiteSpace=wrap;html=1;aspect=fixed;" vertex="1" parent="1">
          <mxGeometry x="800" y="260" width="80" height="80" as="geometry" />
        </mxCell>
        <mxCell id="Vm3qSYr9DGrWe2gxvmKs-10" value="C3.2" style="ellipse;whiteSpace=wrap;html=1;aspect=fixed;" vertex="1" parent="1">
          <mxGeometry x="950" y="359" width="80" height="80" as="geometry" />
        </mxCell>
        <mxCell id="Vm3qSYr9DGrWe2gxvmKs-11" value="" style="endArrow=classic;html=1;rounded=0;exitX=1;exitY=0;exitDx=0;exitDy=0;entryX=0;entryY=0.5;entryDx=0;entryDy=0;" edge="1" parent="1" source="Vm3qSYr9DGrWe2gxvmKs-8">
          <mxGeometry width="50" height="50" relative="1" as="geometry">
            <mxPoint x="630" y="429" as="sourcePoint" />
            <mxPoint x="800" y="299" as="targetPoint" />
          </mxGeometry>
        </mxCell>
        <mxCell id="Vm3qSYr9DGrWe2gxvmKs-12" value="! Verification et ajout" style="edgeLabel;html=1;align=center;verticalAlign=middle;resizable=0;points=[];" vertex="1" connectable="0" parent="Vm3qSYr9DGrWe2gxvmKs-11">
          <mxGeometry x="-0.0333" y="-4" relative="1" as="geometry">
            <mxPoint as="offset" />
          </mxGeometry>
        </mxCell>
        <mxCell id="Vm3qSYr9DGrWe2gxvmKs-13" value="" style="endArrow=classic;html=1;rounded=0;exitX=1;exitY=0.5;exitDx=0;exitDy=0;entryX=0;entryY=0;entryDx=0;entryDy=0;" edge="1" parent="1" target="Vm3qSYr9DGrWe2gxvmKs-10">
          <mxGeometry width="50" height="50" relative="1" as="geometry">
            <mxPoint x="880" y="299" as="sourcePoint" />
            <mxPoint x="680" y="379" as="targetPoint" />
          </mxGeometry>
        </mxCell>
        <mxCell id="Vm3qSYr9DGrWe2gxvmKs-14" value="? Confirmation" style="edgeLabel;html=1;align=center;verticalAlign=middle;resizable=0;points=[];" vertex="1" connectable="0" parent="Vm3qSYr9DGrWe2gxvmKs-13">
          <mxGeometry x="-0.0142" relative="1" as="geometry">
            <mxPoint x="10" y="6" as="offset" />
          </mxGeometry>
        </mxCell>
        <mxCell id="Vm3qSYr9DGrWe2gxvmKs-15" value="C3.E1" style="ellipse;whiteSpace=wrap;html=1;align=center;dashed=1;" vertex="1" parent="1">
          <mxGeometry x="800" y="459" width="80" height="80" as="geometry" />
        </mxCell>
        <mxCell id="Vm3qSYr9DGrWe2gxvmKs-16" value="C3.F" style="ellipse;shape=doubleEllipse;whiteSpace=wrap;html=1;aspect=fixed;" vertex="1" parent="1">
          <mxGeometry x="690" y="110" width="80" height="80" as="geometry" />
        </mxCell>
        <mxCell id="Vm3qSYr9DGrWe2gxvmKs-17" value="" style="endArrow=classic;html=1;rounded=0;exitX=1;exitY=0;exitDx=0;exitDy=0;entryX=0;entryY=0.5;entryDx=0;entryDy=0;" edge="1" parent="1" source="Vm3qSYr9DGrWe2gxvmKs-3" target="Vm3qSYr9DGrWe2gxvmKs-16">
          <mxGeometry width="50" height="50" relative="1" as="geometry">
            <mxPoint x="390" y="430" as="sourcePoint" />
            <mxPoint x="440" y="380" as="targetPoint" />
          </mxGeometry>
        </mxCell>
        <mxCell id="Vm3qSYr9DGrWe2gxvmKs-18" value="Retour menu" style="edgeLabel;html=1;align=center;verticalAlign=middle;resizable=0;points=[];" vertex="1" connectable="0" parent="Vm3qSYr9DGrWe2gxvmKs-17">
          <mxGeometry x="-0.2176" relative="1" as="geometry">
            <mxPoint x="81" y="-35" as="offset" />
          </mxGeometry>
        </mxCell>
        <mxCell id="Vm3qSYr9DGrWe2gxvmKs-19" value="" style="endArrow=classic;html=1;rounded=0;exitX=1;exitY=1;exitDx=0;exitDy=0;entryX=0;entryY=0;entryDx=0;entryDy=0;" edge="1" parent="1" source="Vm3qSYr9DGrWe2gxvmKs-8" target="Vm3qSYr9DGrWe2gxvmKs-15">
          <mxGeometry width="50" height="50" relative="1" as="geometry">
            <mxPoint x="400" y="369" as="sourcePoint" />
            <mxPoint x="940" y="159" as="targetPoint" />
          </mxGeometry>
        </mxCell>
        <mxCell id="Vm3qSYr9DGrWe2gxvmKs-20" value="? Erreur 400" style="edgeLabel;html=1;align=center;verticalAlign=middle;resizable=0;points=[];" vertex="1" connectable="0" parent="Vm3qSYr9DGrWe2gxvmKs-19">
          <mxGeometry x="-0.1438" relative="1" as="geometry">
            <mxPoint y="1" as="offset" />
          </mxGeometry>
        </mxCell>
        <mxCell id="Vm3qSYr9DGrWe2gxvmKs-21" value="C3.3" style="ellipse;whiteSpace=wrap;html=1;aspect=fixed;" vertex="1" parent="1">
          <mxGeometry x="330" y="600" width="80" height="80" as="geometry" />
        </mxCell>
        <mxCell id="Vm3qSYr9DGrWe2gxvmKs-22" value="S3.3" style="ellipse;whiteSpace=wrap;html=1;aspect=fixed;" vertex="1" parent="1">
          <mxGeometry x="644" y="599" width="80" height="80" as="geometry" />
        </mxCell>
        <mxCell id="Vm3qSYr9DGrWe2gxvmKs-23" value="C3.E2" style="ellipse;whiteSpace=wrap;html=1;align=center;dashed=1;" vertex="1" parent="1">
          <mxGeometry x="644" y="770" width="80" height="80" as="geometry" />
        </mxCell>
        <mxCell id="Vm3qSYr9DGrWe2gxvmKs-24" value="" style="endArrow=classic;html=1;rounded=0;exitX=0.5;exitY=1;exitDx=0;exitDy=0;entryX=0;entryY=0;entryDx=0;entryDy=0;" edge="1" parent="1" source="Vm3qSYr9DGrWe2gxvmKs-3" target="Vm3qSYr9DGrWe2gxvmKs-21">
          <mxGeometry width="50" height="50" relative="1" as="geometry">
            <mxPoint x="480" y="450" as="sourcePoint" />
            <mxPoint x="530" y="400" as="targetPoint" />
          </mxGeometry>
        </mxCell>
        <mxCell id="Vm3qSYr9DGrWe2gxvmKs-25" value="! Suppression carte" style="edgeLabel;html=1;align=center;verticalAlign=middle;resizable=0;points=[];" vertex="1" connectable="0" parent="Vm3qSYr9DGrWe2gxvmKs-24">
          <mxGeometry x="0.0544" y="3" relative="1" as="geometry">
            <mxPoint x="1" as="offset" />
          </mxGeometry>
        </mxCell>
        <mxCell id="Vm3qSYr9DGrWe2gxvmKs-40" style="edgeStyle=orthogonalEdgeStyle;rounded=0;orthogonalLoop=1;jettySize=auto;html=1;entryX=0;entryY=0.5;entryDx=0;entryDy=0;" edge="1" parent="1" source="Vm3qSYr9DGrWe2gxvmKs-26" target="Vm3qSYr9DGrWe2gxvmKs-39">
          <mxGeometry relative="1" as="geometry" />
        </mxCell>
        <mxCell id="Vm3qSYr9DGrWe2gxvmKs-41" value="? Confirmation" style="edgeLabel;html=1;align=center;verticalAlign=middle;resizable=0;points=[];" vertex="1" connectable="0" parent="Vm3qSYr9DGrWe2gxvmKs-40">
          <mxGeometry x="-0.1613" y="-2" relative="1" as="geometry">
            <mxPoint y="-11" as="offset" />
          </mxGeometry>
        </mxCell>
        <mxCell id="Vm3qSYr9DGrWe2gxvmKs-26" value="S3.4" style="ellipse;whiteSpace=wrap;html=1;aspect=fixed;" vertex="1" parent="1">
          <mxGeometry x="827" y="599" width="80" height="80" as="geometry" />
        </mxCell>
        <mxCell id="Vm3qSYr9DGrWe2gxvmKs-27" value="" style="endArrow=classic;html=1;rounded=0;exitX=1;exitY=0.5;exitDx=0;exitDy=0;entryX=0;entryY=0.5;entryDx=0;entryDy=0;" edge="1" parent="1" source="Vm3qSYr9DGrWe2gxvmKs-21" target="Vm3qSYr9DGrWe2gxvmKs-22">
          <mxGeometry width="50" height="50" relative="1" as="geometry">
            <mxPoint x="453" y="679" as="sourcePoint" />
            <mxPoint x="555" y="781" as="targetPoint" />
          </mxGeometry>
        </mxCell>
        <mxCell id="Vm3qSYr9DGrWe2gxvmKs-28" value="! PUT /deck/removeCard" style="edgeLabel;html=1;align=center;verticalAlign=middle;resizable=0;points=[];" vertex="1" connectable="0" parent="Vm3qSYr9DGrWe2gxvmKs-27">
          <mxGeometry x="0.0113" y="-2" relative="1" as="geometry">
            <mxPoint y="-11" as="offset" />
          </mxGeometry>
        </mxCell>
        <mxCell id="Vm3qSYr9DGrWe2gxvmKs-29" value="" style="endArrow=classic;html=1;rounded=0;exitX=1;exitY=0.5;exitDx=0;exitDy=0;entryX=0;entryY=0.5;entryDx=0;entryDy=0;" edge="1" parent="1" source="Vm3qSYr9DGrWe2gxvmKs-22" target="Vm3qSYr9DGrWe2gxvmKs-26">
          <mxGeometry width="50" height="50" relative="1" as="geometry">
            <mxPoint x="637" y="739" as="sourcePoint" />
            <mxPoint x="731" y="739" as="targetPoint" />
          </mxGeometry>
        </mxCell>
        <mxCell id="Vm3qSYr9DGrWe2gxvmKs-30" value="! Suppression BD" style="edgeLabel;html=1;align=center;verticalAlign=middle;resizable=0;points=[];" vertex="1" connectable="0" parent="Vm3qSYr9DGrWe2gxvmKs-29">
          <mxGeometry x="-0.2246" y="-4" relative="1" as="geometry">
            <mxPoint x="11" y="-13" as="offset" />
          </mxGeometry>
        </mxCell>
        <mxCell id="Vm3qSYr9DGrWe2gxvmKs-33" value="" style="endArrow=classic;html=1;rounded=0;exitX=0.5;exitY=1;exitDx=0;exitDy=0;entryX=0.5;entryY=0;entryDx=0;entryDy=0;" edge="1" parent="1" source="Vm3qSYr9DGrWe2gxvmKs-22" target="Vm3qSYr9DGrWe2gxvmKs-23">
          <mxGeometry width="50" height="50" relative="1" as="geometry">
            <mxPoint x="824" y="660" as="sourcePoint" />
            <mxPoint x="910" y="660" as="targetPoint" />
          </mxGeometry>
        </mxCell>
        <mxCell id="Vm3qSYr9DGrWe2gxvmKs-34" value="? Erreur 400" style="edgeLabel;html=1;align=center;verticalAlign=middle;resizable=0;points=[];" vertex="1" connectable="0" parent="Vm3qSYr9DGrWe2gxvmKs-33">
          <mxGeometry x="-0.2894" y="-2" relative="1" as="geometry">
            <mxPoint y="1" as="offset" />
          </mxGeometry>
        </mxCell>
        <mxCell id="Vm3qSYr9DGrWe2gxvmKs-35" value="" style="endArrow=classic;html=1;rounded=0;exitX=0;exitY=0.5;exitDx=0;exitDy=0;entryX=1;entryY=1;entryDx=0;entryDy=0;" edge="1" parent="1" source="Vm3qSYr9DGrWe2gxvmKs-15" target="Vm3qSYr9DGrWe2gxvmKs-7">
          <mxGeometry width="50" height="50" relative="1" as="geometry">
            <mxPoint x="580" y="562" as="sourcePoint" />
            <mxPoint x="682" y="490" as="targetPoint" />
            <Array as="points">
              <mxPoint x="580" y="510" />
            </Array>
          </mxGeometry>
        </mxCell>
        <mxCell id="Vm3qSYr9DGrWe2gxvmKs-36" value="Nouvelle tentative" style="edgeLabel;html=1;align=center;verticalAlign=middle;resizable=0;points=[];" vertex="1" connectable="0" parent="Vm3qSYr9DGrWe2gxvmKs-35">
          <mxGeometry x="-0.0333" y="-4" relative="1" as="geometry">
            <mxPoint x="-17" as="offset" />
          </mxGeometry>
        </mxCell>
        <mxCell id="Vm3qSYr9DGrWe2gxvmKs-37" value="" style="endArrow=classic;html=1;rounded=0;exitX=0;exitY=0.5;exitDx=0;exitDy=0;entryX=1;entryY=1;entryDx=0;entryDy=0;" edge="1" parent="1" source="Vm3qSYr9DGrWe2gxvmKs-23" target="Vm3qSYr9DGrWe2gxvmKs-21">
          <mxGeometry width="50" height="50" relative="1" as="geometry">
            <mxPoint x="370" y="510" as="sourcePoint" />
            <mxPoint x="420" y="460" as="targetPoint" />
          </mxGeometry>
        </mxCell>
        <mxCell id="Vm3qSYr9DGrWe2gxvmKs-38" value="Nouvelle tentative" style="edgeLabel;html=1;align=center;verticalAlign=middle;resizable=0;points=[];" vertex="1" connectable="0" parent="Vm3qSYr9DGrWe2gxvmKs-37">
          <mxGeometry x="0.2384" relative="1" as="geometry">
            <mxPoint x="28" y="18" as="offset" />
          </mxGeometry>
        </mxCell>
        <mxCell id="Vm3qSYr9DGrWe2gxvmKs-39" value="S3.5" style="ellipse;whiteSpace=wrap;html=1;aspect=fixed;" vertex="1" parent="1">
          <mxGeometry x="1030" y="599" width="80" height="80" as="geometry" />
        </mxCell>
      </root>
    </mxGraphModel>
  </diagram>
</mxfile>
